<mxfile host="app.diagrams.net" modified="2024-03-20T01:55:07.025Z" agent="Mozilla/5.0 (Macintosh; Intel Mac OS X 10_15_7) AppleWebKit/537.36 (KHTML, like Gecko) Chrome/122.0.0.0 Safari/537.36" version="24.0.7" etag="aNwMJLYe8RKGvIxfwAke" type="github">
  <diagram name="第 1 页" id="Es-i5i0p5gCoWDOMKX8v">
    <mxGraphModel>
      <root>
        <mxCell id="0" />
        <mxCell id="1" parent="0" />
      </root>
    </mxGraphModel>
  </diagram>
</mxfile>
